<svg width="60" height="60" viewBox="0 0 60 60" fill="none" xmlns="http://www.w3.org/2000/svg">
<path fill-rule="evenodd" clip-rule="evenodd" d="M37.1967 37.1967C38.6032 35.7902 40.5109 35 42.5 35H52.5C53.8807 35 55 36.1193 55 37.5V42.5C55 44.4891 54.2098 46.3968 52.8033 47.8033C51.3968 49.2098 49.4891 50 47.5 50H42.5C40.5109 50 38.6032 49.2098 37.1967 47.8033C35.7902 46.3968 35 44.4891 35 42.5C35 40.5109 35.7902 38.6032 37.1967 37.1967ZM42.5 40C41.837 40 41.2011 40.2634 40.7322 40.7323C40.2634 41.2011 40 41.837 40 42.5C40 43.1631 40.2634 43.7989 40.7322 44.2678C41.2011 44.7366 41.837 45 42.5 45H47.5C48.163 45 48.7989 44.7366 49.2678 44.2678C49.7366 43.7989 50 43.1631 50 42.5V40H42.5ZM7.1967 42.1967C8.60322 40.7902 10.5109 40 12.5 40H22.5C23.8807 40 25 41.1193 25 42.5V47.5C25 49.4891 24.2098 51.3968 22.8033 52.8033C21.3968 54.2098 19.4891 55 17.5 55H12.5C10.5109 55 8.60322 54.2098 7.1967 52.8033C5.79018 51.3968 5 49.4891 5 47.5C5 45.5109 5.79018 43.6032 7.1967 42.1967ZM12.5 45C11.837 45 11.2011 45.2634 10.7322 45.7323C10.2634 46.2011 10 46.837 10 47.5C10 48.1631 10.2634 48.7989 10.7322 49.2678C11.2011 49.7366 11.837 50 12.5 50H17.5C18.163 50 18.7989 49.7366 19.2678 49.2678C19.7366 48.7989 20 48.1631 20 47.5V45H12.5Z" fill="#C2CFE0"/>
<path fill-rule="evenodd" clip-rule="evenodd" d="M54.1159 5.59247C54.6767 6.06748 55 6.76514 55 7.50002V37.5C55 38.8807 53.8807 40 52.5 40C51.1193 40 50 38.8807 50 37.5V10.4512L25 14.6178V42.5C25 43.8807 23.8807 45 22.5 45C21.1193 45 20 43.8807 20 42.5V12.5C20 11.2779 20.8835 10.2349 22.089 10.034L52.089 5.03403C52.8139 4.91322 53.5552 5.11746 54.1159 5.59247Z" fill="#C2CFE0"/>
</svg>
