<svg width="60" height="60" viewBox="0 0 60 60" fill="none" xmlns="http://www.w3.org/2000/svg">
<g clip-path="url(#clip0)">
<path fill-rule="evenodd" clip-rule="evenodd" d="M29.9991 7.5C29.9993 7.5 29.9995 7.5 29.9995 10L29.9994 12.5L29.8108 12.5003C29.6857 12.5006 29.5009 12.5011 29.2637 12.5022C28.7894 12.5044 28.1057 12.5089 27.2715 12.5178C25.6021 12.5357 23.3344 12.5714 20.9362 12.6426C18.534 12.714 16.021 12.8205 13.8548 12.9785C11.6345 13.1405 9.98478 13.344 9.16286 13.5605C8.41611 13.775 7.73842 14.1813 7.19732 14.7392C6.66949 15.2833 6.28972 15.953 6.0935 16.6844C5.34465 20.8684 4.97844 25.112 4.99945 29.3626L4.99958 29.3907C4.97279 33.6587 5.33624 37.9202 6.08566 42.1218C6.30223 42.8159 6.6858 43.447 7.20342 43.9593C7.7457 44.496 8.41682 44.8842 9.15232 45.0867C9.97063 45.3042 11.625 45.5088 13.8548 45.6715C16.021 45.8295 18.534 45.936 20.9362 46.0074C23.3344 46.0786 25.6021 46.1143 27.2715 46.1322C28.1057 46.1411 28.7894 46.1456 29.2637 46.1478C29.5009 46.1489 29.6857 46.1494 29.8108 46.1497H30.1882C30.3132 46.1494 30.498 46.1489 30.7352 46.1478C31.2096 46.1456 31.8932 46.1411 32.7274 46.1322C34.3968 46.1143 36.6645 46.0786 39.0627 46.0074C41.4649 45.936 43.978 45.8295 46.1442 45.6715C48.3644 45.5095 50.0142 45.306 50.8361 45.0895C51.5828 44.875 52.2605 44.4687 52.8016 43.9108C53.3295 43.3667 53.7092 42.697 53.9054 41.9657C54.6485 37.8134 55.0147 33.6023 54.9995 29.384L54.9994 29.3593C55.0263 25.0764 54.6602 20.8002 53.9055 16.5844C53.7092 15.853 53.3295 15.1833 52.8016 14.6392C52.2667 14.0877 51.5984 13.6843 50.8617 13.4679C50.0119 13.268 48.356 13.0837 46.1599 12.9374C43.9893 12.7929 41.4728 12.6955 39.0692 12.6303C36.6692 12.5652 34.4001 12.5326 32.7297 12.5163C31.895 12.5081 31.211 12.5041 30.7362 12.502L30.1886 12.5003L29.9994 12.5L29.9995 10C29.9995 7.5 29.9993 7.5 29.9991 7.5L30.1987 7.50026C30.3275 7.50052 30.5163 7.50104 30.7576 7.50207C31.2403 7.50414 31.9336 7.50827 32.7786 7.51653C34.4676 7.53302 36.7673 7.56604 39.2048 7.63217C41.6387 7.6982 44.2284 7.79773 46.4922 7.94849C48.6913 8.09495 50.7782 8.30042 52.0925 8.62136C52.1218 8.62852 52.151 8.63621 52.1801 8.64442C53.7803 9.09715 55.2327 9.96416 56.3906 11.1579C57.5485 12.3516 58.3709 13.8297 58.7747 15.443L56.3495 16.05L58.8098 15.6062C59.6295 20.1505 60.0277 24.7608 59.9995 29.3783C60.0151 33.9268 59.6169 38.4673 58.8098 42.9436C58.7999 42.9985 58.7882 43.053 58.7747 43.107C58.3709 44.7203 57.5485 46.1984 56.3906 47.3921C55.2327 48.5858 53.7803 49.4528 52.1801 49.9056L52.1454 49.9151C50.8113 50.2719 48.7062 50.4979 46.5079 50.6582C44.2397 50.8237 41.6465 50.9328 39.2112 51.0051C36.7719 51.0776 34.4709 51.1138 32.7809 51.1319C31.9354 51.1409 31.2417 51.1455 30.7587 51.1477C30.5171 51.1489 30.3282 51.1494 30.1992 51.1497L30.0006 51.15L29.7997 51.1497C29.6708 51.1494 29.4818 51.1489 29.2403 51.1477C28.7572 51.1455 28.0635 51.1409 27.218 51.1319C25.5281 51.1138 23.227 51.0776 20.7877 51.0051C18.3524 50.9328 15.7592 50.8237 13.4911 50.6582C11.2928 50.4979 9.18769 50.2719 7.85357 49.9151L7.83967 49.9114C6.27199 49.4825 4.84145 48.6564 3.68625 47.5131C2.53105 46.3698 1.69025 44.9479 1.24508 43.3847C1.22248 43.3054 1.20383 43.225 1.18918 43.1438C0.369582 38.6 -0.0286876 33.9903 -0.000561495 29.3733C-0.0223471 24.7909 0.375891 20.2161 1.18916 15.7063C1.19905 15.6515 1.21076 15.597 1.22429 15.543C1.62809 13.9297 2.45046 12.4516 3.60836 11.2579C4.76626 10.0642 6.21867 9.19715 7.81889 8.74442L7.85357 8.73488C9.18769 8.37808 11.2928 8.15212 13.491 7.99178C15.7592 7.82634 18.3524 7.71722 20.7877 7.64485C23.227 7.57237 25.5281 7.53619 27.218 7.51811C28.0635 7.50907 28.7572 7.50454 29.2403 7.50227C29.4818 7.50114 29.6708 7.50057 29.7997 7.50029L29.9991 7.5Z" fill="#C2CFE0"/>
<path fill-rule="evenodd" clip-rule="evenodd" d="M23.118 19.039C23.8875 18.5914 24.837 18.5868 25.6109 19.0269L39.9859 27.2019C40.7673 27.6463 41.25 28.476 41.25 29.375C41.25 30.274 40.7673 31.1038 39.9859 31.5482L25.6109 39.7232C24.837 40.1633 23.8875 40.1586 23.118 39.711C22.3484 39.2634 21.875 38.4403 21.875 37.55V21.2C21.875 20.3098 22.3484 19.4867 23.118 19.039ZM26.875 25.4977V33.2523L33.6928 29.375L26.875 25.4977Z" fill="#C2CFE0"/>
</g>
<defs>
<clipPath id="clip0">
<rect width="60" height="60" fill="white"/>
</clipPath>
</defs>
</svg>
