<svg width="16" height="16" viewBox="0 0 16 16" fill="none" xmlns="http://www.w3.org/2000/svg">
    <path fill-rule="evenodd" clip-rule="evenodd" d="M10.6654 10.61V12C10.6654 13.4728 9.47146 14.6667 7.9987 14.6667C6.52594 14.6667 5.33203 13.4728 5.33203 12V10.61C5.33203 10.4799 5.28592 10.3378 5.17701 10.1508C5.10703 10.0307 5.01548 9.89872 4.87737 9.71601L4.83091 9.65538C4.73869 9.53519 4.53726 9.27267 4.4629 9.17223C3.70966 8.15486 3.33203 7.24662 3.33203 6.00004C3.33203 3.42271 5.42137 1.33337 7.9987 1.33337C10.576 1.33337 12.6654 3.42271 12.6654 6.00004C12.6654 7.27388 12.2826 8.21659 11.5358 9.23203C11.4566 9.33967 11.2569 9.59923 11.1386 9.75293C11.0923 9.81305 11.0585 9.85697 11.0493 9.86928C10.8984 10.07 10.8046 10.2124 10.7437 10.336C10.6885 10.4478 10.6654 10.5343 10.6654 10.61ZM9.36114 10.293C9.39514 10.1086 9.45838 9.92763 9.54793 9.7461C9.65316 9.53278 9.78698 9.32955 9.98347 9.06814C9.99696 9.05019 10.0404 8.99368 10.0966 8.92067C10.2166 8.76458 10.3947 8.53311 10.4616 8.44205C11.0541 7.63657 11.332 6.95198 11.332 6.00004C11.332 4.15909 9.83965 2.66671 7.9987 2.66671C6.15775 2.66671 4.66536 4.15909 4.66536 6.00004C4.66536 6.91907 4.93647 7.57112 5.5345 8.37885C5.5987 8.46557 5.78002 8.70197 5.87795 8.82965L5.87796 8.82966L5.94102 8.912C6.10853 9.1336 6.22703 9.30444 6.32915 9.47975C6.48816 9.75275 6.59373 10.0188 6.63948 10.2948C7.05497 10.5442 7.50412 10.6667 7.99886 10.6667C8.49475 10.6667 8.94484 10.5436 9.36114 10.293ZM9.33203 12V11.7751C8.91043 11.9247 8.46503 12 7.99886 12C7.53257 12 7.08706 11.9246 6.66536 11.7749V12C6.66536 12.7364 7.26232 13.3334 7.9987 13.3334C8.73508 13.3334 9.33203 12.7364 9.33203 12Z" fill="#C2CFE0"/>
</svg>
