<svg width="20" height="20" viewBox="0 0 20 20" fill="none" xmlns="http://www.w3.org/2000/svg">
    <path fill-rule="evenodd" clip-rule="evenodd" d="M9.16602 8.33334C8.70578 8.33334 8.33268 8.70643 8.33268 9.16667V16.6667C8.33268 17.1269 8.70578 17.5 9.16602 17.5H16.666C17.1263 17.5 17.4993 17.1269 17.4993 16.6667V9.16667C17.4993 8.70643 17.1263 8.33334 16.666 8.33334H9.16602ZM6.66602 9.16667C6.66602 7.78596 7.7853 6.66667 9.16602 6.66667H16.666C18.0467 6.66667 19.166 7.78596 19.166 9.16667V16.6667C19.166 18.0474 18.0467 19.1667 16.666 19.1667H9.16602C7.7853 19.1667 6.66602 18.0474 6.66602 16.6667V9.16667Z" fill="#90A4BD"/>
    <path fill-rule="evenodd" clip-rule="evenodd" d="M3.33398 2.49999C3.11297 2.49999 2.90101 2.58779 2.74473 2.74407C2.58845 2.90035 2.50065 3.11231 2.50065 3.33333V10.8333C2.50065 11.0543 2.58845 11.2663 2.74473 11.4226C2.90101 11.5789 3.11297 11.6667 3.33398 11.6667H4.16732C4.62756 11.6667 5.00065 12.0398 5.00065 12.5C5.00065 12.9602 4.62756 13.3333 4.16732 13.3333H3.33398C2.67094 13.3333 2.03506 13.0699 1.56622 12.6011C1.09738 12.1323 0.833984 11.4964 0.833984 10.8333V3.33333C0.833984 2.67029 1.09738 2.0344 1.56622 1.56556C2.03506 1.09672 2.67094 0.833328 3.33398 0.833328H10.834C11.497 0.833328 12.1329 1.09672 12.6018 1.56556C13.0706 2.0344 13.334 2.67029 13.334 3.33333V4.16666C13.334 4.6269 12.9609 5 12.5007 5C12.0404 5 11.6673 4.6269 11.6673 4.16666V3.33333C11.6673 3.11231 11.5795 2.90035 11.4232 2.74407C11.267 2.58779 11.055 2.49999 10.834 2.49999H3.33398Z" fill="#90A4BD"/>
</svg>
