<svg width="20" height="20" viewBox="0 0 20 20" fill="none" xmlns="http://www.w3.org/2000/svg">
    <path fill-rule="evenodd" clip-rule="evenodd" d="M1.66602 4.99999C1.66602 4.53976 2.03911 4.16666 2.49935 4.16666H17.4993C17.9596 4.16666 18.3327 4.53976 18.3327 4.99999C18.3327 5.46023 17.9596 5.83333 17.4993 5.83333H2.49935C2.03911 5.83333 1.66602 5.46023 1.66602 4.99999Z" fill="#90A4BD"/>
    <path fill-rule="evenodd" clip-rule="evenodd" d="M8.33268 2.49999C8.11167 2.49999 7.89971 2.58779 7.74343 2.74407C7.58715 2.90035 7.49935 3.11231 7.49935 3.33333V4.16666H12.4993V3.33333C12.4993 3.11231 12.4116 2.90035 12.2553 2.74407C12.099 2.58779 11.887 2.49999 11.666 2.49999H8.33268ZM14.166 4.16666V3.33333C14.166 2.67029 13.9026 2.0344 13.4338 1.56556C12.9649 1.09672 12.3291 0.833328 11.666 0.833328H8.33268C7.66964 0.833328 7.03376 1.09672 6.56492 1.56556C6.09608 2.0344 5.83268 2.67029 5.83268 3.33333V4.16666H4.16602C3.70578 4.16666 3.33268 4.53976 3.33268 4.99999V16.6667C3.33268 17.3297 3.59607 17.9656 4.06492 18.4344C4.53376 18.9033 5.16964 19.1667 5.83268 19.1667H14.166C14.8291 19.1667 15.4649 18.9033 15.9338 18.4344C16.4026 17.9656 16.666 17.3297 16.666 16.6667V4.99999C16.666 4.53976 16.2929 4.16666 15.8327 4.16666H14.166ZM4.99935 5.83333V16.6667C4.99935 16.8877 5.08715 17.0996 5.24343 17.2559C5.39971 17.4122 5.61167 17.5 5.83268 17.5H14.166C14.387 17.5 14.599 17.4122 14.7553 17.2559C14.9116 17.0996 14.9993 16.8877 14.9993 16.6667V5.83333H4.99935Z" fill="#90A4BD"/>
    <path fill-rule="evenodd" clip-rule="evenodd" d="M8.33268 8.33333C8.79292 8.33333 9.16602 8.70642 9.16602 9.16666V14.1667C9.16602 14.6269 8.79292 15 8.33268 15C7.87245 15 7.49935 14.6269 7.49935 14.1667V9.16666C7.49935 8.70642 7.87245 8.33333 8.33268 8.33333Z" fill="#90A4BD"/>
    <path fill-rule="evenodd" clip-rule="evenodd" d="M11.666 8.33333C12.1263 8.33333 12.4993 8.70642 12.4993 9.16666V14.1667C12.4993 14.6269 12.1263 15 11.666 15C11.2058 15 10.8327 14.6269 10.8327 14.1667V9.16666C10.8327 8.70642 11.2058 8.33333 11.666 8.33333Z" fill="#90A4BD"/>
</svg>
