<svg width="30" height="30" viewBox="0 0 30 30" fill="none" xmlns="http://www.w3.org/2000/svg">
    <path fill-rule="evenodd" clip-rule="evenodd" d="M27.5 5H26.25V17.5C26.25 18.8807 25.1307 20 23.75 20H16.25V21.7923L21.8931 25.1781L20.6069 27.3219L16.25 24.7077V27.5H13.75V24.7077L9.39312 27.3219L8.10688 25.1781L13.75 21.7923V20H6.25C4.86929 20 3.75 18.8807 3.75 17.5V5H2.5V2.5H27.5V5ZM6.25 5V17.5H23.75V5H6.25ZM10 15H12.5V10H10V15ZM16.25 15H13.75V7.5H16.25V15ZM17.5 15H20V11.25H17.5V15Z" fill="#C2CFE0"/>
</svg>
