<svg width="20" height="20" viewBox="0 0 20 20" fill="none" xmlns="http://www.w3.org/2000/svg">
    <path fill-rule="evenodd" clip-rule="evenodd" d="M4.75657 6.91075C5.08201 7.23619 5.08201 7.76382 4.75657 8.08926L2.84583 10L4.75657 11.9107C5.08201 12.2362 5.08201 12.7638 4.75657 13.0893C4.43114 13.4147 3.9035 13.4147 3.57806 13.0893L1.07806 10.5893C0.752625 10.2638 0.752625 9.73619 1.07806 9.41075L3.57806 6.91075C3.9035 6.58531 4.43114 6.58531 4.75657 6.91075Z" fill="#90A4BD"/>
    <path fill-rule="evenodd" clip-rule="evenodd" d="M9.41009 1.07741C9.73553 0.751969 10.2632 0.751969 10.5886 1.07741L13.0886 3.57741C13.414 3.90284 13.414 4.43048 13.0886 4.75592C12.7632 5.08135 12.2355 5.08135 11.9101 4.75592L9.99935 2.84517L8.0886 4.75592C7.76317 5.08135 7.23553 5.08135 6.91009 4.75592C6.58466 4.43048 6.58466 3.90284 6.91009 3.57741L9.41009 1.07741Z" fill="#90A4BD"/>
    <path fill-rule="evenodd" clip-rule="evenodd" d="M6.91009 15.2441C7.23553 14.9186 7.76317 14.9186 8.0886 15.2441L9.99935 17.1548L11.9101 15.2441C12.2355 14.9186 12.7632 14.9186 13.0886 15.2441C13.414 15.5695 13.414 16.0972 13.0886 16.4226L10.5886 18.9226C10.2632 19.248 9.73553 19.248 9.41009 18.9226L6.91009 16.4226C6.58466 16.0972 6.58466 15.5695 6.91009 15.2441Z" fill="#90A4BD"/>
    <path fill-rule="evenodd" clip-rule="evenodd" d="M15.2441 6.91075C15.5695 6.58531 16.0972 6.58531 16.4226 6.91075L18.9226 9.41075C19.248 9.73619 19.248 10.2638 18.9226 10.5893L16.4226 13.0893C16.0972 13.4147 15.5695 13.4147 15.2441 13.0893C14.9186 12.7638 14.9186 12.2362 15.2441 11.9107L17.1548 10L15.2441 8.08926C14.9186 7.76382 14.9186 7.23619 15.2441 6.91075Z" fill="#90A4BD"/>
    <path fill-rule="evenodd" clip-rule="evenodd" d="M0.833984 10C0.833984 9.53977 1.20708 9.16667 1.66732 9.16667H18.334C18.7942 9.16667 19.1673 9.53977 19.1673 10C19.1673 10.4602 18.7942 10.8333 18.334 10.8333H1.66732C1.20708 10.8333 0.833984 10.4602 0.833984 10Z" fill="#90A4BD"/>
    <path fill-rule="evenodd" clip-rule="evenodd" d="M9.99935 0.833328C10.4596 0.833328 10.8327 1.20642 10.8327 1.66666V18.3333C10.8327 18.7936 10.4596 19.1667 9.99935 19.1667C9.53911 19.1667 9.16602 18.7936 9.16602 18.3333V1.66666C9.16602 1.20642 9.53911 0.833328 9.99935 0.833328Z" fill="#90A4BD"/>
</svg>
