<svg width="20" height="20" viewBox="0 0 20 20" fill="none" xmlns="http://www.w3.org/2000/svg">
<path fill-rule="evenodd" clip-rule="evenodd" d="M9.52636 3.41563C9.81508 3.5544 9.9987 3.84638 9.9987 4.16672V15.8334C9.9987 16.1537 9.81508 16.4457 9.52636 16.5845C9.23763 16.7232 8.89493 16.6842 8.64479 16.4841L4.70638 13.3334H1.66536C1.20513 13.3334 0.832031 12.9603 0.832031 12.5V7.50005C0.832031 7.03981 1.20513 6.66672 1.66536 6.66672H4.70638L8.64479 3.51599C8.89493 3.31588 9.23763 3.27686 9.52636 3.41563ZM8.33203 5.90057L5.51928 8.15077C5.37152 8.26898 5.18792 8.33338 4.9987 8.33338H2.4987V11.6667H4.9987C5.18792 11.6667 5.37152 11.7311 5.51928 11.8493L8.33203 14.0995V5.90057Z" fill="#90A4BD"/>
<path fill-rule="evenodd" clip-rule="evenodd" d="M13.4697 12.4697C13.7626 12.1768 14.2374 12.1768 14.5303 12.4697L18.5303 16.4697C18.8232 16.7626 18.8232 17.2374 18.5303 17.5303C18.2374 17.8232 17.7626 17.8232 17.4697 17.5303L13.4697 13.5303C13.1768 13.2374 13.1768 12.7626 13.4697 12.4697Z" fill="#90A4BD"/>
<path fill-rule="evenodd" clip-rule="evenodd" d="M18.5303 12.4697C18.2374 12.1768 17.7626 12.1768 17.4697 12.4697L13.4697 16.4697C13.1768 16.7626 13.1768 17.2374 13.4697 17.5303C13.7626 17.8232 14.2374 17.8232 14.5303 17.5303L18.5303 13.5303C18.8232 13.2374 18.8232 12.7626 18.5303 12.4697Z" fill="#90A4BD"/>
</svg>
