<svg width="20" height="20" viewBox="0 0 20 20" fill="none" xmlns="http://www.w3.org/2000/svg">
<path fill-rule="evenodd" clip-rule="evenodd" d="M9.52636 3.41557C9.81508 3.55433 9.9987 3.84632 9.9987 4.16665V15.8333C9.9987 16.1537 9.81508 16.4456 9.52636 16.5844C9.23763 16.7232 8.89493 16.6842 8.64479 16.484L4.70638 13.3333H1.66536C1.20513 13.3333 0.832031 12.9602 0.832031 12.5V7.49999C0.832031 7.03975 1.20513 6.66665 1.66536 6.66665H4.70638L8.64479 3.51593C8.89493 3.31582 9.23763 3.2768 9.52636 3.41557ZM8.33203 5.90051L5.51928 8.15071C5.37152 8.26892 5.18792 8.33332 4.9987 8.33332H2.4987V11.6667H4.9987C5.18792 11.6667 5.37152 11.7311 5.51928 11.8493L8.33203 14.0995V5.90051Z" fill="#90A4BD"/>
<path fill-rule="evenodd" clip-rule="evenodd" d="M15.303 3.51901C15.6285 3.19363 16.1561 3.19371 16.4815 3.51919C18.2 5.23819 19.1654 7.56935 19.1654 10C19.1654 12.4307 18.2 14.7619 16.4815 16.4809C16.1561 16.8063 15.6285 16.8064 15.303 16.481C14.9775 16.1556 14.9775 15.628 15.3028 15.3025C16.7089 13.8961 17.4987 11.9888 17.4987 10C17.4987 8.01129 16.7089 6.10398 15.3028 4.69752C14.9775 4.37204 14.9775 3.8444 15.303 3.51901ZM12.3614 6.46068C12.6868 6.13529 13.2145 6.13537 13.5399 6.46086C14.4772 7.3985 15.0038 8.67004 15.0038 9.99586C15.0038 11.3217 14.4772 12.5932 13.5399 13.5309C13.2145 13.8563 12.6868 13.8564 12.3614 13.531C12.0359 13.2056 12.0358 12.678 12.3612 12.3525C12.9861 11.7274 13.3371 10.8797 13.3371 9.99586C13.3371 9.11198 12.9861 8.26428 12.3612 7.63919C12.0358 7.3137 12.0359 6.78607 12.3614 6.46068Z" fill="#90A4BD"/>
</svg>
