<svg width="24" height="24" viewBox="0 0 24 24" fill="none" xmlns="http://www.w3.org/2000/svg">
<path d="M8 12C8 12.2652 8.10536 12.5196 8.29289 12.7071C8.48043 12.8946 8.73478 13 9 13H15C15.2652 13 15.5196 12.8946 15.7071 12.7071C15.8946 12.5196 16 12.2652 16 12C16 11.7348 15.8946 11.4804 15.7071 11.2929C15.5196 11.1054 15.2652 11 15 11H9C8.73478 11 8.48043 11.1054 8.29289 11.2929C8.10536 11.4804 8 11.7348 8 12Z" fill="#C2CFE0"/>
<path d="M8.99833 16H7.20833C6.18069 16.0274 5.17976 15.6706 4.4012 14.9993C3.62264 14.328 3.12242 13.3905 2.99833 12.37C2.94672 11.8144 3.01189 11.2542 3.18967 10.7254C3.36744 10.1965 3.65389 9.71073 4.0306 9.29917C4.40731 8.88762 4.86595 8.55942 5.37705 8.33568C5.88815 8.11193 6.4404 7.99758 6.99833 7.99997H8.99833C9.26355 7.99997 9.5179 7.89461 9.70544 7.70707C9.89297 7.51954 9.99833 7.26518 9.99833 6.99997C9.99833 6.73475 9.89297 6.4804 9.70544 6.29286C9.5179 6.10533 9.26355 5.99997 8.99833 5.99997H7.20833C5.72605 5.98016 4.2865 6.49642 3.15463 7.45373C2.02277 8.41103 1.27478 9.74495 1.04833 11.21C0.935776 12.0574 1.0056 12.919 1.25311 13.7373C1.50063 14.5555 1.92013 15.3114 2.48352 15.9543C3.0469 16.5972 3.74117 17.1123 4.51981 17.4651C5.29845 17.8179 6.14349 18.0003 6.99833 18H8.99833C9.26355 18 9.5179 17.8946 9.70544 17.7071C9.89297 17.5195 9.99833 17.2652 9.99833 17C9.99833 16.7348 9.89297 16.4804 9.70544 16.2929C9.5179 16.1053 9.26355 16 8.99833 16ZM22.9983 11.24C22.7747 9.75649 22.0174 8.4056 20.8685 7.44083C19.7196 6.47606 18.2581 5.96372 16.7583 5.99997H15.2483C14.4383 5.99997 13.9983 6.44997 13.9983 6.99997C13.9983 7.26518 14.1037 7.51954 14.2912 7.70707C14.4788 7.89461 14.7331 7.99997 14.9983 7.99997H16.7883C17.816 7.97254 18.8169 8.32935 19.5955 9.00065C20.374 9.67195 20.8742 10.6095 20.9983 11.63C21.0499 12.1855 20.9848 12.7457 20.807 13.2745C20.6292 13.8034 20.3428 14.2892 19.9661 14.7008C19.5893 15.1123 19.1307 15.4405 18.6196 15.6643C18.1085 15.888 17.5563 16.0024 16.9983 16H14.9983C14.7331 16 14.4788 16.1053 14.2912 16.2929C14.1037 16.4804 13.9983 16.7348 13.9983 17C13.9983 17.2652 14.1037 17.5195 14.2912 17.7071C14.4788 17.8946 14.7331 18 14.9983 18H16.9983C17.8545 18.0069 18.7022 17.8305 19.4846 17.4826C20.2669 17.1347 20.9657 16.6234 21.5341 15.983C22.1024 15.3427 22.5271 14.5881 22.7797 13.77C23.0323 12.9519 23.1068 12.0893 22.9983 11.24Z" fill="#C2CFE0"/>
</svg>
