<svg width="54" height="54" viewBox="0 0 54 54" fill="none" xmlns="http://www.w3.org/2000/svg">
<path fill-rule="evenodd" clip-rule="evenodd" d="M37.591 16.409C38.4697 17.2877 38.4697 18.7123 37.591 19.591L6.09099 51.091C5.21231 51.9697 3.78769 51.9697 2.90901 51.091C2.03033 50.2123 2.03033 48.7877 2.90901 47.909L34.409 16.409C35.2877 15.5303 36.7123 15.5303 37.591 16.409Z" fill="#90A4BD"/>
<path fill-rule="evenodd" clip-rule="evenodd" d="M24.8465 6.84671C27.8016 3.89161 31.8096 2.23145 35.9888 2.23145C40.1679 2.23145 44.1759 3.89161 47.131 6.84671C50.0861 9.80182 51.7463 13.8098 51.7463 17.989C51.7463 22.1673 50.0867 26.1745 47.1327 29.1295L47.131 29.1312L31.9683 44.3388C31.5462 44.7622 30.9729 45.0002 30.375 45.0002H11.25C10.0074 45.0002 9 43.9928 9 42.7502V23.6252C9 23.0285 9.23705 22.4562 9.65901 22.0342L24.8465 6.84671ZM35.9888 6.73145C33.0031 6.73145 30.1397 7.9175 28.0285 10.0287L13.5 24.5572V40.5002H29.4411L43.9467 25.9516L43.949 25.9492C46.0602 23.838 47.2463 20.9746 47.2463 17.989C47.2463 15.0033 46.0602 12.1399 43.949 10.0287C41.8378 7.9175 38.9744 6.73145 35.9888 6.73145Z" fill="#90A4BD"/>
<path fill-rule="evenodd" clip-rule="evenodd" d="M18 33.7502C18 32.5076 19.0074 31.5002 20.25 31.5002H38.25C39.4926 31.5002 40.5 32.5076 40.5 33.7502C40.5 34.9928 39.4926 36.0002 38.25 36.0002H20.25C19.0074 36.0002 18 34.9928 18 33.7502Z" fill="#90A4BD"/>
</svg>
