<svg width="24" height="24" viewBox="0 0 24 24" fill="none" xmlns="http://www.w3.org/2000/svg">
<g clip-path="url(#clip0)">
<path fill-rule="evenodd" clip-rule="evenodd" d="M12.0004 3C12.0005 3 12.0006 3 12.0006 4L12.0006 5L11.9251 5.00011C11.8751 5.00022 11.8011 5.00044 11.7063 5.00089C11.5165 5.00178 11.2431 5.00356 10.9094 5.00713C10.2416 5.01427 9.33455 5.02855 8.37527 5.05706C7.4144 5.08561 6.40917 5.12821 5.54269 5.19141C4.65458 5.25619 3.99469 5.33761 3.66592 5.42419C3.36722 5.51 3.09615 5.67253 2.87971 5.89566C2.66858 6.11333 2.51667 6.38119 2.43818 6.67375C2.13864 8.34737 1.99216 10.0448 2.00056 11.7451L2.00061 11.7563C1.9899 13.4635 2.13528 15.1681 2.43505 16.8487C2.52167 17.1264 2.6751 17.3788 2.88215 17.5837C3.09906 17.7984 3.36751 17.9537 3.66171 18.0347C3.98903 18.1217 4.65077 18.2035 5.54269 18.2686C6.40917 18.3318 7.4144 18.3744 8.37527 18.4029C9.33455 18.4314 10.2416 18.4457 10.9094 18.4529C11.2431 18.4564 11.5165 18.4582 11.7063 18.4591C11.8011 18.4596 11.8751 18.4598 11.9251 18.4599H12.076C12.1261 18.4598 12.2 18.4596 12.2949 18.4591C12.4846 18.4582 12.7581 18.4564 13.0917 18.4529C13.7595 18.4457 14.6666 18.4314 15.6259 18.4029C16.5867 18.3744 17.592 18.3318 18.4585 18.2686C19.3466 18.2038 20.0065 18.1224 20.3352 18.0358C20.6339 17.95 20.905 17.7875 21.1214 17.5643C21.3326 17.3467 21.4845 17.0788 21.563 16.7863C21.8602 15.1253 22.0066 13.4409 22.0006 11.7536L22.0005 11.7437C22.0113 10.0306 21.8649 8.32008 21.563 6.63377C21.4845 6.3412 21.3326 6.07333 21.1214 5.85566C20.9075 5.63509 20.6401 5.47373 20.3455 5.38717C20.0055 5.3072 19.3432 5.23348 18.4647 5.17498C17.5965 5.11716 16.5899 5.07822 15.6285 5.05213C14.6685 5.02609 13.7608 5.01304 13.0927 5.00651C12.7588 5.00325 12.4852 5.00162 12.2953 5.00081L12.0762 5.0001L12.0006 5L12.0006 4C12.0006 3 12.0005 3 12.0004 3L12.0803 3.0001C12.1318 3.00021 12.2073 3.00042 12.3038 3.00083C12.4969 3.00166 12.7742 3.00331 13.1122 3.00661C13.7878 3.01321 14.7077 3.02641 15.6827 3.05287C16.6562 3.07928 17.6921 3.11909 18.5976 3.1794C19.4773 3.23798 20.3121 3.32017 20.8378 3.44854C20.8495 3.45141 20.8612 3.45448 20.8728 3.45777C21.5129 3.63886 22.0939 3.98566 22.557 4.46315C23.0202 4.94063 23.3491 5.53189 23.5106 6.17719L22.5406 6.42L23.5247 6.24249C23.8526 8.06021 24.0119 9.90432 24.0006 11.7513C24.0068 13.5707 23.8475 15.3869 23.5247 17.1774C23.5207 17.1994 23.5161 17.2212 23.5106 17.2428C23.3491 17.8881 23.0202 18.4794 22.557 18.9569C22.0939 19.4343 21.5129 19.7811 20.8728 19.9622L20.8589 19.966C20.3253 20.1088 19.4832 20.1992 18.6039 20.2633C17.6967 20.3295 16.6594 20.3731 15.6853 20.4021C14.7095 20.4311 13.7891 20.4455 13.1131 20.4528C12.775 20.4564 12.4975 20.4582 12.3042 20.4591C12.2076 20.4595 12.1321 20.4598 12.0805 20.4599L12.001 20.46L11.9207 20.4599C11.8691 20.4598 11.7935 20.4595 11.6969 20.4591C11.5037 20.4582 11.2262 20.4564 10.888 20.4528C10.212 20.4455 9.2916 20.4311 8.31587 20.4021C7.34174 20.3731 6.30447 20.3295 5.3972 20.2633C4.5179 20.1992 3.67586 20.1088 3.14221 19.966L3.13665 19.9646C2.50958 19.793 1.93736 19.4626 1.47528 19.0052C1.0132 18.5479 0.67688 17.9792 0.498813 17.3539C0.489774 17.3222 0.482312 17.29 0.476453 17.2575C0.148614 15.44 -0.0106938 13.5961 0.000556652 11.7493C-0.00815761 9.91636 0.151138 8.08643 0.476446 6.28253C0.4804 6.2606 0.485087 6.23881 0.490497 6.21719C0.652015 5.57189 0.980967 4.98063 1.44413 4.50315C1.90729 4.02566 2.48825 3.67886 3.12834 3.49777L3.14221 3.49395C3.67586 3.35123 4.5179 3.26085 5.3972 3.19671C6.30447 3.13054 7.34174 3.08689 8.31587 3.05794C9.2916 3.02895 10.212 3.01448 10.888 3.00724C11.2262 3.00363 11.5037 3.00182 11.6969 3.00091C11.7935 3.00046 11.8691 3.00023 11.9207 3.00011L12.0004 3Z" fill="#C2CFE0"/>
<path fill-rule="evenodd" clip-rule="evenodd" d="M9.24718 7.61559C9.55499 7.43653 9.9348 7.43468 10.2443 7.61072L15.9943 10.8807C16.3069 11.0585 16.5 11.3904 16.5 11.75C16.5 12.1096 16.3069 12.4415 15.9943 12.6192L10.2443 15.8892C9.9348 16.0653 9.55499 16.0634 9.24718 15.8844C8.93937 15.7053 8.75 15.3761 8.75 15.02V8.47998C8.75 8.12388 8.93937 7.79464 9.24718 7.61559ZM10.75 10.1991V13.3009L13.4771 11.75L10.75 10.1991Z" fill="#C2CFE0"/>
</g>
<defs>
<clipPath id="clip0">
<rect width="24" height="24" fill="white"/>
</clipPath>
</defs>
</svg>
