<svg width="50" height="50" viewBox="0 0 50 50" fill="none" xmlns="http://www.w3.org/2000/svg">
<path fill-rule="evenodd" clip-rule="evenodd" d="M7.5 5C6.11929 5 5 6.11929 5 7.5V42.5C5 43.8807 6.11929 45 7.5 45H42.5C43.8807 45 45 43.8807 45 42.5V7.5C45 6.11929 43.8807 5 42.5 5H7.5ZM0 7.5C0 3.35786 3.35786 0 7.5 0H42.5C46.6421 0 50 3.35786 50 7.5V42.5C50 46.6421 46.6421 50 42.5 50H7.5C3.35786 50 0 46.6421 0 42.5V7.5Z" fill="#C2CFE0"/>
<path fill-rule="evenodd" clip-rule="evenodd" d="M16.25 15C15.5596 15 15 15.5596 15 16.25C15 16.9404 15.5596 17.5 16.25 17.5C16.9404 17.5 17.5 16.9404 17.5 16.25C17.5 15.5596 16.9404 15 16.25 15ZM10 16.25C10 12.7982 12.7982 10 16.25 10C19.7018 10 22.5 12.7982 22.5 16.25C22.5 19.7018 19.7018 22.5 16.25 22.5C12.7982 22.5 10 19.7018 10 16.25Z" fill="#C2CFE0"/>
<path fill-rule="evenodd" clip-rule="evenodd" d="M33.2322 18.2322C34.2085 17.2559 35.7915 17.2559 36.7678 18.2322L49.2678 30.7322C50.2441 31.7085 50.2441 33.2915 49.2678 34.2678C48.2915 35.2441 46.7085 35.2441 45.7322 34.2678L35 23.5355L9.26777 49.2678C8.29146 50.2441 6.70854 50.2441 5.73223 49.2678C4.75592 48.2915 4.75592 46.7085 5.73223 45.7322L33.2322 18.2322Z" fill="#C2CFE0"/>
</svg>
