<svg width="20" height="20" viewBox="0 0 20 20" fill="none" xmlns="http://www.w3.org/2000/svg">
    <path fill-rule="evenodd" clip-rule="evenodd" d="M0 10C0 4.47 4.47 0 10 0C15.53 0 20 4.47 20 10C20 15.53 15.53 20 10 20C4.47 20 0 15.53 0 10ZM9.99609 4C9.13151 4 8.69922 4.38802 8.69922 5.16406C8.69922 5.94531 9.13151 6.33594 9.99609 6.33594C10.4284 6.33594 10.7513 6.23438 10.9648 6.03125C11.1836 5.82292 11.293 5.53385 11.293 5.16406C11.293 4.38802 10.8607 4 9.99609 4ZM8.80078 16.1562H11.1836V7.42188H8.80078V16.1562Z" fill="#90A4BD"/>
</svg>
